<?xml version="1.0" encoding="UTF-8"?>
<svg width="9px" height="15px" viewBox="0 0 9 15" version="1.1" xmlns="http://www.w3.org/2000/svg" xmlns:xlink="http://www.w3.org/1999/xlink">
    <title>路径</title>
    <g id="页面-1" stroke="none" stroke-width="1" fill="none" fill-rule="evenodd">
        <g id="arrow-right" transform="translate(0.460938, 0.343750)" fill="#FFFFFF" fill-rule="nonzero">
            <path d="M8.179682,7.01563 C8.179682,6.85417 8.148442,6.70573 8.085942,6.57031 C8.023442,6.4349 7.929682,6.30469 7.804682,6.17969 L1.796872,0.296875 C1.593752,0.098958 1.346352,0 1.054682,0 C0.867182,0 0.692712,0.046875 0.53125,0.140625 C0.369791,0.234375 0.239583,0.361979 0.140624,0.523438 C0.046874,0.67969 3.88578059e-16,0.85417 3.88578059e-16,1.04687 C3.88578059e-16,1.33854 0.109374,1.59375 0.328124,1.8125 L5.679682,7.01563 L0.328124,12.21875 C0.109374,12.44275 3.88578059e-16,12.69795 3.88578059e-16,12.98435 C3.88578059e-16,13.18225 0.046874,13.35935 0.140624,13.51565 C0.239583,13.67185 0.369791,13.79685 0.53125,13.89065 C0.692712,13.98435 0.867182,14.03125 1.054682,14.03125 C1.346352,14.03125 1.593752,13.93225 1.796872,13.73435 L7.804682,7.85156 C7.934892,7.72656 8.028642,7.59635 8.085942,7.46094 C8.148442,7.32031 8.179682,7.17187 8.179682,7.01563 Z" id="路径"></path>
        </g>
    </g>
</svg>