<svg width="31" height="36" viewBox="0 0 31 36" fill="none" xmlns="http://www.w3.org/2000/svg">
<path fill-rule="evenodd" clip-rule="evenodd" d="M31 9L15.5 0L0 9V27L15.5 36L31 27V9ZM15.5 32.5656L28.0427 10.7172H2.95741L15.5 32.5656ZM26.4242 11.6569H26.4243L15.5 30.6862L4.57581 11.6569H4.57587L15.5 30.686L26.4242 11.6569ZM24.9676 12.5027L24.9677 12.5025H6.03236L6.03243 12.5027H24.9676ZM7.65078 13.4424H23.3493L15.5 27.1153L7.65078 13.4424ZM15.5 2.06167L1.77533 10.0308V25.9691L1.77531 25.969V10.0307L15.5 2.06154L29.2246 10.0307V10.0308L15.5 2.06167ZM15.5 32.8533L28.2903 25.4266V10.5734L15.5 3.14677L2.70972 10.5734V25.4266L15.5 32.8533ZM0.934385 26.4573V26.4575L15.5 34.9149L30.0656 26.4575V9.54255L30.0656 9.54253V26.4573L15.5 34.9148L0.934385 26.4573Z" fill="white"/>
</svg>
